<svg width="24" height="24" viewBox="0 0 24 24" fill="none" xmlns="http://www.w3.org/2000/svg">
<path d="M10.7627 2.86288C11.0815 2.29629 11.9184 2.29642 12.2373 2.86288L12.2969 2.99276L13.4922 6.22323C14.2265 8.20759 15.7921 9.77304 17.7764 10.5074L21.0069 11.7027C21.7467 11.9766 21.7467 13.0226 21.0069 13.2965L17.7764 14.4918C15.792 15.2261 14.2266 16.7916 13.4922 18.776L12.2969 22.0064C12.023 22.7463 10.977 22.7463 10.7032 22.0064L9.50784 18.776C8.77346 16.7917 7.208 15.2261 5.22366 14.4918L1.99319 13.2965C1.25364 13.0224 1.2535 11.9766 1.99319 11.7027L5.22366 10.5074C7.20812 9.77309 8.77352 8.20769 9.50784 6.22323L10.7032 2.99276L10.7627 2.86288ZM10.9141 6.74373C10.0278 9.13878 8.13921 11.0274 5.74417 11.9137L4.16018 12.4996L5.74417 13.0855C8.13909 13.9717 10.0278 15.8606 10.9141 18.2555L11.5 19.8385L12.086 18.2555C12.9722 15.8605 14.861 13.9718 17.2559 13.0855L18.8389 12.4996L17.2559 11.9137C14.861 11.0274 12.9722 9.13867 12.086 6.74373L11.5 5.15975L10.9141 6.74373ZM18.7657 2.63338C18.8462 2.41593 19.1537 2.41603 19.2344 2.63338L19.4112 3.1119C19.6644 3.79612 20.2045 4.33527 20.8887 4.58846L21.3662 4.76522C21.5839 4.84576 21.5839 5.15343 21.3662 5.23397L20.8887 5.4117C20.2044 5.66493 19.6644 6.20399 19.4112 6.88827L19.2344 7.36678C19.1536 7.5838 18.8463 7.58389 18.7657 7.36678L18.5889 6.88827C18.3357 6.20417 17.7964 5.66499 17.1123 5.4117L16.6338 5.23397C16.4164 5.15332 16.4162 4.84573 16.6338 4.76522L17.1123 4.58846C17.7963 4.33522 18.3357 3.7959 18.5889 3.1119L18.7657 2.63338Z" fill="black"/>
</svg>
