<svg width="24" height="24" viewBox="0 0 24 24" fill="none" xmlns="http://www.w3.org/2000/svg">
<path d="M6.6812 17.2771C6.41273 17.0086 6.41275 16.5733 6.68124 16.3049L11.0074 11.979L6.68124 7.65315C6.41275 7.38468 6.41273 6.94937 6.6812 6.68088C6.94968 6.41238 7.38498 6.41236 7.65347 6.68084L11.9805 11.0075L16.3062 6.68218C16.5747 6.41371 17.01 6.41372 17.2785 6.68222C17.547 6.95072 17.547 7.38602 17.2785 7.65449L12.9523 11.9803L17.2785 16.3062C17.547 16.5747 17.547 17.01 17.2785 17.2785C17.01 17.547 16.5747 17.547 16.3062 17.2785L11.9792 12.9518L7.65348 17.2772C7.38498 17.5456 6.94968 17.5456 6.6812 17.2771Z" fill="white"/>
<path d="M1 12C1 5.92487 5.92487 1 12 1C18.0751 1 23 5.92487 23 12C23 18.0751 18.0751 23 12 23C5.92487 23 1 18.0751 1 12ZM12 2.375C6.68426 2.375 2.375 6.68426 2.375 12C2.375 17.3157 6.68426 21.625 12 21.625C17.3157 21.625 21.625 17.3157 21.625 12C21.625 6.68426 17.3157 2.375 12 2.375Z" fill="white"/>
</svg>
