<svg width="24" height="24" viewBox="0 0 24 24" fill="none" xmlns="http://www.w3.org/2000/svg">
<path d="M11.9998 1.25C12.2535 1.25 12.4903 1.37824 12.6287 1.59082L18.5438 10.6914C21.9188 15.8837 18.1926 22.75 11.9998 22.75C5.80733 22.7497 2.08107 15.8835 5.4558 10.6914L11.3709 1.59082L11.4275 1.51562C11.5689 1.34857 11.7778 1.25011 11.9998 1.25ZM6.71363 11.5088C3.98753 15.703 6.9975 21.2497 11.9998 21.25C17.0024 21.25 20.0124 15.7032 17.286 11.5088L11.9998 3.37598L6.71363 11.5088ZM15.9999 14.25C16.4141 14.25 16.7499 14.5858 16.7499 15C16.7499 17.6234 14.6232 19.75 11.9998 19.75C11.5858 19.7498 11.2498 19.4141 11.2498 19C11.2498 18.5859 11.5858 18.2502 11.9998 18.25C13.7948 18.25 15.2498 16.7949 15.2498 15C15.2498 14.5859 15.5858 14.2502 15.9999 14.25Z" fill="black"/>
</svg>
