<svg width="24" height="24" viewBox="0 0 24 24" fill="none" xmlns="http://www.w3.org/2000/svg">
<path d="M6 1.25C6.41421 1.25 6.75 1.58676 6.75 2.00098V5.98047C6.75017 5.98696 6.75098 5.99347 6.75098 6C6.75098 6.00621 6.75015 6.01239 6.75 6.01855V16.501C6.75026 16.915 7.08595 17.251 7.5 17.251H17.9805C17.987 17.2508 17.9935 17.25 18 17.25C18.0064 17.25 18.0132 17.2508 18.0195 17.251H22C22.4142 17.251 22.75 17.5868 22.75 18.001C22.7497 18.415 22.4141 18.751 22 18.751H18.75V22C18.75 22.4142 18.4142 22.75 18 22.75C17.586 22.7497 17.25 22.4141 17.25 22V18.751H7.5C6.25736 18.751 5.25 17.7426 5.25 16.5V6.75H2C1.58601 6.74974 1.25 6.41405 1.25 6C1.25 5.58579 1.58676 5.25 2.00098 5.25H5.25V2C5.25026 1.58601 5.58595 1.25 6 1.25ZM16.501 5.25C17.7434 5.25026 18.75 6.25752 18.75 7.5V14C18.75 14.4142 18.4142 14.75 18 14.75C17.586 14.7497 17.25 14.4141 17.25 14V7.5C17.25 7.08579 16.9142 6.75 16.5 6.75H10C9.58601 6.74974 9.25098 6.41405 9.25098 6C9.25098 5.58579 9.58676 5.25 10.001 5.25H16.501Z" fill="black"/>
</svg>
