<svg width="20" height="20" viewBox="0 0 20 20" fill="none" xmlns="http://www.w3.org/2000/svg">
<path d="M8.93335 10.1962C8.68964 10.4402 8.68963 10.8358 8.93332 11.0798C9.17701 11.3238 9.57213 11.3238 9.81584 11.0798L17.5042 3.38297L17.5044 6.87385C17.5044 7.2189 17.7838 7.49861 18.1284 7.4986C18.4731 7.49859 18.7525 7.21886 18.7524 6.87381L18.7523 1.87475C18.7523 1.52971 18.4729 1.25 18.1282 1.25H13.1276C12.7829 1.25 12.5035 1.52972 12.5035 1.87477C12.5035 2.21982 12.7829 2.49954 13.1276 2.49954L16.6216 2.49954L8.93335 10.1962Z" fill="#1F1F1F"/>
<path d="M2.50052 4.38638C2.50052 4.04133 2.77991 3.76161 3.12456 3.76161H9.36553C9.71018 3.76161 9.98957 3.48189 9.98957 3.13684C9.98957 2.79179 9.71018 2.51207 9.36553 2.51207H3.12456C2.09062 2.51207 1.25244 3.35123 1.25244 4.38638V16.8757C1.25244 17.9108 2.09062 18.75 3.12456 18.75H15.5992C16.6332 18.75 17.4714 17.9108 17.4714 16.8757V10.63C17.4714 10.285 17.192 10.0053 16.8473 10.0053C16.5027 10.0053 16.2233 10.285 16.2233 10.63V16.8757C16.2233 17.2207 15.9439 17.5005 15.5992 17.5005H3.12456C2.77991 17.5005 2.50052 17.2207 2.50052 16.8757V4.38638Z" fill="#1F1F1F"/>
</svg>
