<svg width="24" height="24" viewBox="0 0 24 24" fill="none" xmlns="http://www.w3.org/2000/svg">
<path d="M8.24353 5.26422C8.24353 5.67872 8.57968 6.01475 8.99434 6.01475C9.409 6.01475 9.74515 5.67872 9.74515 5.26422V3.75157C9.74515 3.33707 10.0813 3.00105 10.496 3.00105L18.7475 3.00105C19.1622 3.00105 19.4983 3.33707 19.4983 3.75157L19.4983 20.2484C19.4983 20.6629 19.1622 20.999 18.7475 20.999H10.496C10.0813 20.999 9.74515 20.6629 9.74515 20.2484V18.7591C9.74515 18.3446 9.409 18.0086 8.99434 18.0086C8.57968 18.0086 8.24353 18.3446 8.24353 18.7591V20.2484C8.24353 21.4919 9.25198 22.5 10.496 22.5H18.7475C19.9915 22.5 21 21.4919 21 20.2484V3.75157C21 2.50806 19.9915 1.5 18.7475 1.5L10.496 1.5C9.25198 1.5 8.24353 2.50807 8.24353 3.75157V5.26422Z" fill="black"/>
<path d="M15.7765 11.2378C16.1912 11.2378 16.5273 11.5739 16.5273 11.9884C16.5273 12.4029 16.1912 12.7389 15.7765 12.7389H4.05633L6.53385 15.2293C6.82625 15.5232 6.82493 15.9984 6.53091 16.2907C6.23688 16.5829 5.7615 16.5816 5.46911 16.2877L1.71843 12.5176C1.42629 12.2239 1.42732 11.7492 1.72074 11.4568L5.46722 7.72347C5.76089 7.43083 6.23627 7.43158 6.52902 7.72513C6.82177 8.01869 6.82103 8.49389 6.52736 8.78653L4.06744 11.2378H15.7765Z" fill="black"/>
</svg>
