<svg width="48" height="48" viewBox="0 0 48 48" fill="none" xmlns="http://www.w3.org/2000/svg">
<path d="M25.7812 24.375L29.7812 29.375L28.2188 30.625L26 27.8506V39H24V27.8506L21.7812 30.625L20.2188 29.375L24.2188 24.375H25.7812ZM26.3096 9C31.6426 9 36.0949 12.9054 36.8779 18.0684C37.2286 18.0304 37.5614 18.0001 37.7256 18C42.3646 18 46 21.5661 46 26.1191C45.9999 30.538 42.538 33.9999 38.1182 34H30V32H38.1182C41.416 31.9999 43.9999 29.416 44 26.1182C44 22.6882 41.2436 20 37.7256 19.999C37.5627 20.0002 36.7597 20.09 36.1133 20.1719L34.9883 19.2324C34.7493 14.6164 30.9366 11 26.3096 11C22.6567 11.0002 19.2106 13.2574 17.9297 16.4893L17.7979 16.752L16.416 17.1562C15.072 16.3892 13.685 16 12.292 16C7.72 16 4 19.6573 4 24.1523C4.00019 28.4792 7.54355 32 11.8984 32H20V34H11.8984C6.44055 34 2.00019 29.5822 2 24.1523C2 18.5553 6.617 14 12.292 14C13.699 14 15.0923 14.3108 16.4453 14.9258C18.2453 11.3971 22.1728 9.00017 26.3096 9Z" fill="black"/>
</svg>
