<svg width="24" height="24" viewBox="0 0 24 24" fill="none" xmlns="http://www.w3.org/2000/svg">
<path d="M3 13.8716C3 11.1778 5.18261 8.994 7.875 8.994H19.9344L17.4529 11.4836C17.1605 11.7769 17.1659 12.2473 17.4649 12.5342C17.764 12.821 18.2435 12.8158 18.5359 12.5224L22.2846 8.76158C22.5726 8.4726 22.5724 8.01075 22.284 7.72215L18.5381 3.97292C18.2453 3.67987 17.7658 3.67514 17.4671 3.96236C17.1684 4.24957 17.1635 4.71996 17.4563 5.013L19.9343 7.49323H7.875C4.35419 7.49323 1.5 10.349 1.5 13.8716C1.5 17.3943 4.35419 20.25 7.875 20.25H15.009C15.4232 20.25 15.759 19.914 15.759 19.4996C15.759 19.0852 15.4232 18.7492 15.009 18.7492H7.875C5.18261 18.7492 3 16.5654 3 13.8716Z" fill="black"/>
</svg>
