<svg width="24" height="24" viewBox="0 0 24 24" fill="none" xmlns="http://www.w3.org/2000/svg">
<path d="M6.54754 11.4403C6.83998 11.7336 6.8346 12.2037 6.53554 12.4905C6.23647 12.7771 5.75696 12.7719 5.46453 12.4787L1.71586 8.71984C1.42781 8.43101 1.42808 7.96946 1.71647 7.68094L5.46232 3.93373C5.75509 3.64084 6.23461 3.63612 6.53333 3.92317C6.83206 4.21024 6.83688 4.68038 6.54409 4.97327L4.06609 7.45218H16.1254C19.6462 7.45218 22.5004 10.3064 22.5004 13.8272C22.5004 17.348 19.6462 20.2022 16.1254 20.2022H8.57947C8.16524 20.2022 7.82947 19.8664 7.82947 19.4522C7.82947 19.038 8.16524 18.7022 8.57947 18.7022H16.1254C18.8178 18.7022 21.0004 16.5195 21.0004 13.8272C21.0004 11.1348 18.8178 8.95219 16.1254 8.95219H4.06607L6.54754 11.4403Z" fill="black"/>
</svg>
