<svg width="20" height="20" viewBox="0 0 20 20" fill="none" xmlns="http://www.w3.org/2000/svg">
<path d="M15.6131 7.49461C15.2677 7.49461 14.9877 7.77473 14.9877 8.12028C14.9877 8.46583 15.2677 8.74596 15.6131 8.74596L16.8737 8.74596C17.2191 8.74596 17.4991 9.02608 17.4991 9.37163L17.4991 16.2479C17.4991 16.5935 17.2191 16.8736 16.8737 16.8736L3.1263 16.8736C2.78089 16.8736 2.50087 16.5935 2.50087 16.2479L2.50087 9.37163C2.50087 9.02608 2.78089 8.74596 3.1263 8.74596L4.36739 8.74596C4.71281 8.74596 4.99283 8.46584 4.99283 8.12028C4.99283 7.77473 4.71281 7.49461 4.36739 7.49461L3.1263 7.49461C2.09005 7.49461 1.25 8.33498 1.25 9.37163L1.25 16.2479C1.25 17.2846 2.09005 18.125 3.1263 18.125L16.8737 18.125C17.9099 18.125 18.75 17.2846 18.75 16.2479L18.75 9.37163C18.75 8.33498 17.9099 7.49461 16.8737 7.49461L15.6131 7.49461Z" fill="#1F1F1F"/>
<path d="M10.6351 13.7721C10.6351 14.1176 10.3551 14.3978 10.0097 14.3978C9.66428 14.3978 9.38426 14.1176 9.38426 13.7721L9.38426 4.00527L7.30895 6.06988C7.06403 6.31354 6.66802 6.31244 6.42445 6.06742C6.18088 5.8224 6.18198 5.42625 6.42691 5.18259L9.56868 2.05703C9.8134 1.81358 10.209 1.81443 10.4526 2.05895L13.5638 5.18102C13.8076 5.42574 13.807 5.82189 13.5624 6.06585C13.3178 6.30981 12.9218 6.30919 12.6779 6.06447L10.6351 4.01453L10.6351 13.7721Z" fill="#1F1F1F"/>
</svg>
