<svg width="20" height="20" viewBox="0 0 20 20" fill="none" xmlns="http://www.w3.org/2000/svg">
<path d="M10.6256 14.3854C10.6256 14.7306 10.3458 15.0104 10.0006 15.0104C9.65543 15.0104 9.3756 14.7306 9.3756 14.3854V3.54144L6.09336 7.30165C5.86636 7.56169 5.47155 7.58849 5.2115 7.3615C4.95146 7.13451 4.92466 6.73969 5.15165 6.47964L9.52975 1.464C9.6482 1.3283 9.81944 1.2503 9.99955 1.25C10.1797 1.2497 10.3512 1.32713 10.4701 1.46243L14.8779 6.47806C15.1058 6.73735 15.0803 7.13226 14.821 7.36011C14.5616 7.58798 14.1668 7.5625 13.9389 7.30323L10.6256 3.53299V14.3854Z" fill="white"/>
<path d="M2.5 9.38232C2.5 9.03715 2.22018 8.75732 1.875 8.75732C1.52983 8.75732 1.25 9.03715 1.25 9.38232V16.8751C1.25 17.9106 2.08946 18.7501 3.125 18.7501H16.875C17.9105 18.7501 18.75 17.9106 18.75 16.8751V9.38232C18.75 9.03715 18.4701 8.75732 18.125 8.75732C17.7799 8.75732 17.5 9.03715 17.5 9.38232V16.8751C17.5 17.2202 17.2201 17.5001 16.875 17.5001H3.125C2.77982 17.5001 2.5 17.2202 2.5 16.8751V9.38232Z" fill="white"/>
</svg>
